<svg width="40" height="40" viewBox="0 0 40 40" fill="none" xmlns="http://www.w3.org/2000/svg">
<path d="M39.2226 31.8065L34.7882 28.85L30.8462 26.2224C30.0854 25.7162 29.063 25.8822 28.5014 26.6031L26.0621 29.7389C25.5381 30.4194 24.5956 30.6149 23.8442 30.1989C22.189 29.2782 20.2318 28.4114 15.9132 24.0873C11.5947 19.7632 10.7223 17.8115 9.80158 16.1564C9.38557 15.405 9.58112 14.4624 10.2616 13.9385L13.3974 11.4992C14.1183 10.9377 14.2843 9.91526 13.7781 9.15441L11.2313 5.33375L8.19403 0.777866C7.67708 0.00240638 6.64225 -0.230403 5.84304 0.248888L2.34027 2.35027C1.39364 2.908 0.697786 3.80861 0.396852 4.8654C-0.561028 8.35778 -0.75415 16.0618 11.5926 28.4086C23.9393 40.7553 31.6427 40.5615 35.135 39.6036C36.1918 39.3027 37.0924 38.6069 37.6502 37.6602L39.7515 34.1575C40.2309 33.3582 39.9981 32.3234 39.2226 31.8065Z" fill="#FCE82F"/>
</svg>
